# xmcd
# 
# Track frame offsets:
#     150
#     16559
#     32756
#     49308
#     59758
#     69142
#     82357
#     97689
#     116159
#     131442
#     150571
#     166235
#     179397
#     191381
# 
# Disc length: 2805
# 
# Revision: 0
# Processed by: cddbd v1.5.2PL0 Copyright (c) Steve Scherf et al.
# Submitted via: BonkEnc v1.0.8
# 
DISCID=b00af30e
DTITLE=Patrick McMahon - Where It Began
DYEAR=2004
DGENRE=Country
TTITLE0=Crunchy Granola Suite
TTITLE1=Sweet Caroline
TTITLE2=Cats In The Cradle
TTITLE3=Thank God I'm A Country Boy
TTITLE4=The Outback Club
TTITLE5=Country Roads
TTITLE6=The Gambler
TTITLE7=Copperhead Road
TTITLE8=Mrs Robinson
TTITLE9=Like A Rolling Stone
TTITLE10=River Deep Mountain High
TTITLE11=Cherry Cherry
TTITLE12=Cracklin Rosie
TTITLE13=Hollywood Nights
EXTD=
EXTT0=
EXTT1=
EXTT2=
EXTT3=
EXTT4=
EXTT5=
EXTT6=
EXTT7=
EXTT8=
EXTT9=
EXTT10=
EXTT11=
EXTT12=
EXTT13=
PLAYORDER=
